<svg xmlns="http://www.w3.org/2000/svg" width="33" height="32" viewBox="0 0 33 32">
  <defs>
    <style>
      .cls-1 {
        fill: #54524f;
        fill-rule: evenodd;
      }
    </style>
  </defs>
  <path id="Search" class="cls-1" d="M23.9,19.8A11.141,11.141,0,0,0,21.158,4.074,11.656,11.656,0,0,0,5.116,6.764,11.14,11.14,0,0,0,7.859,22.489a11.7,11.7,0,0,0,12.5.507l8.485,8.268a2.442,2.442,0,0,0,3.4.085,2.328,2.328,0,0,0,.088-3.337c-0.029-.03-0.057-0.058-0.088-0.086Zm-9.4.771A7.351,7.351,0,0,1,7.077,13.3a7.423,7.423,0,0,1,14.842-.017,7.352,7.352,0,0,1-7.412,7.29H14.5Z"/>
</svg>
